<?xml version="1.0" standalone="no"?>
<!DOCTYPE svg PUBLIC "-//W3C//DTD SVG 20010904//EN"
 "http://www.w3.org/TR/2001/REC-SVG-20010904/DTD/svg10.dtd">
<svg version="1.0" xmlns="http://www.w3.org/2000/svg"
 width="512.000000pt" height="512.000000pt" viewBox="0 0 512.000000 512.000000"
 preserveAspectRatio="xMidYMid meet">

<g transform="translate(0.000000,512.000000) scale(0.100000,-0.100000)"
fill="#AAAAAA" stroke="none">
<path d="M1179 3387 c-64 -34 -102 -93 -107 -166 -2 -32 1 -76 8 -97 10 -32
142 -169 679 -707 446 -447 679 -674 707 -687 50 -25 133 -26 182 -3 24 10
275 254 690 667 500 499 658 663 677 700 90 180 -92 368 -275 285 -34 -15
-180 -154 -613 -587 l-567 -567 -578 577 c-399 400 -588 582 -614 593 -56 23
-136 19 -189 -8z"/>
</g>
</svg>
